<svg width="32" height="32" viewBox="0 0 32 32" fill="none" xmlns="http://www.w3.org/2000/svg">
<rect width="32" height="32" rx="16" fill="#18181b"/>
<path d="M24.4853 7.51472C22.2348 5.26428 19.1826 4 16 4C12.8174 4 9.76516 5.26428 7.51472 7.51472C5.26428 9.76516 4 12.8174 4 16C4 19.1826 5.26428 22.2348 7.51472 24.4853C9.76515 26.7357 12.8174 28 16 28C19.1826 28 22.2348 26.7357 24.4853 24.4853C26.7357 22.2348 28 19.1826 28 16C28 12.8174 26.7357 9.76515 24.4853 7.51472ZM23.1803 8.82086C23.6536 9.2962 24.0787 9.8172 24.4495 10.3762L20.5634 14.9616L17.3419 5.93628C19.5536 6.22519 21.607 7.23971 23.1803 8.82086ZM19.1834 16.5769L17.0881 19.0427L13.9046 18.4657L12.8166 15.4231L14.9119 12.9573L18.0954 13.5343L19.1834 16.5769ZM8.8197 8.82086C10.563 7.06809 12.8897 6.01725 15.3573 5.8682L17.3777 11.522L7.95779 9.80623C8.2236 9.45957 8.5115 9.13043 8.8197 8.82086ZM6.61358 19.87C6.06582 18.5323 5.80858 17.0936 5.8589 15.649C5.90923 14.2045 6.26597 12.7871 6.9055 11.4908L12.8143 12.5697L6.61358 19.87ZM8.8197 23.1791C8.34639 22.7038 7.92125 22.1828 7.55049 21.6238L11.4366 17.0384L14.6581 26.0591C12.4469 25.7715 10.3936 24.7586 8.8197 23.1791ZM23.1803 23.1791C21.437 24.9319 19.1103 25.9828 16.6427 26.1318L14.6223 20.478L24.0422 22.1984C23.7762 22.5435 23.4883 22.8711 23.1803 23.1791ZM19.1857 19.4303L25.3864 12.13C25.9342 13.4677 26.1914 14.9064 26.1411 16.351C26.0908 17.7955 25.734 19.2129 25.0945 20.5092L19.1857 19.4303Z" fill="white"/>
</svg>
