<svg width="140" height="42" viewBox="0 0 140 42" fill="none" xmlns="http://www.w3.org/2000/svg">
<path d="M0 11.6785L6.84602 31.8139L20.9408 0L0 11.6785ZM8.85956 41.0761L21.3435 9.66497V32.2166L8.85956 41.0761ZM38.9756 24.7729C39.0264 24.3952 39.0135 24.0682 38.9378 23.7911C38.8737 23.5205 38.744 23.2699 38.56 23.0614C38.3742 22.8348 38.1535 22.6393 37.906 22.4823C37.6261 22.2949 37.3315 22.1306 37.0249 21.991C36.4404 21.7089 35.8768 21.3854 35.3384 21.0229C34.8309 20.6811 34.3663 20.2796 33.9547 19.8269C33.5603 19.3826 33.2566 18.8655 33.0607 18.3047C32.8593 17.7248 32.7844 17.0756 32.8343 16.3539C32.8931 15.5316 33.1025 14.793 33.4634 14.139C33.8151 13.495 34.2948 12.9296 34.8728 12.4775C35.4519 12.016 36.1019 11.6721 36.8236 11.4457C37.5548 11.2094 38.3209 11.0988 39.0892 11.1187C40.1878 11.1429 41.1108 11.4119 41.8574 11.9242C42.5988 12.4208 43.1769 13.1255 43.519 13.9498C43.8878 14.789 44.0554 15.733 44.0223 16.7816L40.4358 16.7687C40.46 16.366 40.4358 15.9593 40.3601 15.5485C40.2933 15.1378 40.1338 14.8019 39.8817 14.5418C39.6385 14.2727 39.2648 14.1342 38.7622 14.1262C38.3168 14.1262 37.927 14.2268 37.5911 14.4282C37.2568 14.6201 36.9758 14.8925 36.7736 15.2207C36.5608 15.5657 36.4235 15.952 36.3709 16.3539C36.3256 16.6511 36.3604 16.955 36.4716 17.2343C36.5884 17.4944 36.7478 17.7296 36.9492 17.939C37.383 18.3473 37.8859 18.6754 38.4344 18.9079C39.0634 19.2269 39.6425 19.5627 40.1709 19.9147C40.7081 20.2674 41.1615 20.6742 41.5304 21.1357C41.9118 21.5959 42.1908 22.1321 42.3487 22.7087C42.5243 23.3047 42.5871 23.9844 42.5372 24.748C42.4703 25.5953 42.2641 26.3419 41.9202 26.987C41.5935 27.6225 41.1395 28.184 40.5864 28.6365C40.021 29.0873 39.3763 29.4288 38.6857 29.6433C37.9449 29.8734 37.1712 29.9795 36.3959 29.9574C35.5236 29.9324 34.7432 29.7689 34.0553 29.4661C33.3911 29.1735 32.7983 28.7401 32.3181 28.1959C31.8484 27.6347 31.4977 26.9839 31.2871 26.2831C31.06 25.5445 30.9722 24.752 31.0222 23.9047L34.6087 23.9168C34.5837 24.3114 34.5877 24.6932 34.6216 25.0621C34.6554 25.4318 34.7472 25.7547 34.8986 26.031C35.0492 26.3081 35.2675 26.5303 35.5526 26.6979C35.8377 26.8662 36.2155 26.95 36.685 26.95C37.1296 26.95 37.5114 26.8573 37.8303 26.6729C38.1477 26.4813 38.4116 26.2129 38.5979 25.8925C38.7912 25.5655 38.9168 25.1918 38.9756 24.7729ZM51.4467 23.2499L47.5968 23.2378L48.1372 20.1797L51.623 20.2038C52.1772 20.1958 52.6508 20.0621 53.0454 19.8011C53.4401 19.5337 53.7461 19.189 53.9636 18.7702C54.1907 18.3417 54.3421 17.8681 54.417 17.3478C54.467 16.9612 54.4718 16.5505 54.4299 16.1147C54.3982 15.7083 54.2593 15.3175 54.0272 14.9823C53.8089 14.6634 53.4562 14.487 52.9697 14.4532L50.3014 14.4282L47.6596 29.6932H44.0723L47.2311 11.37L53.1332 11.3829C54.2495 11.4159 55.1886 11.7019 55.9522 12.2383C56.7178 12.7587 57.3062 13.5006 57.6387 14.3646C57.9995 15.2545 58.134 16.2404 58.0414 17.3229C57.9327 18.539 57.5799 19.5877 56.9839 20.4688C56.4052 21.3423 55.6125 22.053 54.6812 22.5331C53.7332 23.0195 52.6548 23.258 51.4467 23.2499ZM68.7131 26.6479L68.1719 29.6932H60.7718L61.3009 26.6479H68.7131ZM65.0638 11.37L61.8921 29.6932H58.2927L61.4515 11.37H65.0638ZM79.5613 14.818L73.2057 29.694H69.3043L78.0382 11.3708H80.4923L79.5613 14.818ZM80.0268 29.694L78.7679 14.516L78.9693 11.37H81.2977L83.7269 29.6932L80.0268 29.694ZM81.3227 22.8601L80.7815 25.9182H72.7273L73.2686 22.8601H81.3227ZM93.8445 24.7729C93.8952 24.3952 93.8823 24.0682 93.8066 23.7911C93.743 23.5204 93.6132 23.2697 93.4289 23.0614C93.2434 22.8346 93.0226 22.639 92.7749 22.4823C92.495 22.295 92.2003 22.1307 91.8938 21.991C91.3093 21.7089 90.7456 21.3854 90.2072 21.0229C89.6999 20.681 89.2353 20.2794 88.8235 19.8269C88.4291 19.3826 88.1254 18.8655 87.9295 18.3047C87.7282 17.7248 87.6533 17.0756 87.7032 16.3539C87.762 15.5316 87.9714 14.793 88.3322 14.139C88.6842 13.4952 89.1638 12.9298 89.7417 12.4775C90.3208 12.016 90.9708 11.6721 91.6924 11.4457C92.4237 11.2095 93.1898 11.0989 93.958 11.1187C95.0566 11.1429 95.9796 11.4119 96.7263 11.9242C97.4676 12.4209 98.0457 13.1256 98.3878 13.9498C98.7567 14.789 98.9242 15.733 98.8912 16.7816L95.3047 16.7687C95.3297 16.366 95.3047 15.9593 95.229 15.5485C95.1613 15.1378 95.0027 14.8019 94.7506 14.5418C94.5073 14.2727 94.1336 14.1342 93.6302 14.1262C93.1857 14.1262 92.7958 14.2268 92.46 14.4282C92.1259 14.6203 91.8449 14.8927 91.6425 15.2207C91.4292 15.5655 91.2919 15.9519 91.2398 16.3539C91.1979 16.6809 91.2309 16.9741 91.3405 17.2343C91.458 17.4944 91.6167 17.7296 91.8181 17.939C92.2519 18.3473 92.7547 18.6754 93.3033 18.9079C93.9323 19.2269 94.5114 19.5627 95.0397 19.9147C95.5769 20.2674 96.0304 20.6742 96.3993 21.1357C96.7805 21.596 97.0595 22.1322 97.2176 22.7087C97.3931 23.3047 97.456 23.9844 97.406 24.748C97.3392 25.5953 97.133 26.3419 96.7891 26.987C96.4627 27.6228 96.0087 28.1843 95.4553 28.6365C94.8901 29.0873 94.2457 29.4287 93.5553 29.6433C92.8143 29.8734 92.0404 29.9795 91.2647 29.9574C90.3925 29.9324 89.612 29.7689 88.9242 29.4661C88.2601 29.1733 87.6674 28.74 87.1869 28.1959C86.7172 27.6347 86.3662 26.9839 86.1552 26.2831C85.9289 25.5445 85.8411 24.752 85.891 23.9047L89.4775 23.9168C89.4523 24.2983 89.4566 24.6812 89.4904 25.0621C89.5234 25.4318 89.6161 25.7547 89.7675 26.031C89.9181 26.3081 90.1364 26.5303 90.4215 26.6979C90.7066 26.8662 91.0843 26.95 91.5539 26.95C91.9985 26.95 92.3802 26.8573 92.6992 26.6729C93.0181 26.4796 93.2743 26.2203 93.4667 25.8925C93.66 25.5655 93.7857 25.1918 93.8445 24.7729ZM110.708 18.7952L110.167 21.8404H102.855L103.384 18.7952H110.708ZM105.711 11.37L102.541 29.6932H98.9412L102.1 11.37H105.711ZM114.584 11.37L111.4 29.6932H107.839L111.022 11.37H114.584ZM125.041 26.6479L124.501 29.6932H116.774L117.289 26.6479H125.041ZM121.065 11.37L117.893 29.6932H114.295L117.454 11.37H121.065ZM125.369 18.7952L124.853 21.7526H118.145L118.649 18.7952H125.369ZM127.659 11.37L127.119 14.4282H119.404L119.945 11.37H127.659ZM131.41 29.6932H128.087L128.641 26.6479L131.585 26.6608C132.576 26.6689 133.365 26.4675 133.952 26.0568C134.548 25.6371 134.992 25.0742 135.285 24.3702C135.579 23.6566 135.793 22.8512 135.927 21.954L136.33 19.0843C136.397 18.5559 136.444 18.0236 136.469 17.4864C136.506 16.9878 136.463 16.4864 136.343 16.0012C136.238 15.5672 135.99 15.1814 135.638 14.9058C135.294 14.6215 134.782 14.466 134.102 14.4411L130.667 14.4282L131.208 11.37L134.254 11.3829C135.361 11.4079 136.301 11.6342 137.073 12.0627C137.825 12.4722 138.461 13.065 138.923 13.7863C139.392 14.5079 139.707 15.3262 139.867 16.2404C140.026 17.1545 140.042 18.1154 139.917 19.1221L139.489 21.9661C139.331 23.0172 139.03 24.0419 138.596 25.0121C138.194 25.9241 137.636 26.7587 136.947 27.4783C136.269 28.1794 135.455 28.7359 134.556 29.1141C133.642 29.5088 132.592 29.7013 131.41 29.6932ZM133.348 11.37L130.176 29.6932H126.577L129.736 11.37H133.348Z" fill="white" />
</svg>
