<svg width="140" height="26" viewBox="0 0 140 26" fill="none" xmlns="http://www.w3.org/2000/svg">
<path d="M0 24.9469L4.29499 0.543581H8.32968L4.03469 24.9469H0ZM9.82642 24.9469L11.193 16.9418C11.2795 16.4648 11.3557 15.9768 11.4208 15.4776C11.4859 14.9792 11.5184 14.5014 11.5184 14.0459C11.5184 13.3309 11.3334 12.7667 10.9652 12.354C10.6073 11.9429 10.0867 11.7357 9.40343 11.7357C8.72014 11.7357 8.10706 11.877 7.56505 12.1596C7.02218 12.4413 6.4639 12.8317 5.88935 13.3301L6.42622 10.3041C7.20713 9.63191 7.97177 9.14983 8.72014 8.85699C9.47717 8.56221 10.283 8.41289 11.0954 8.41688C12.0818 8.41688 12.9115 8.62323 13.5845 9.03595C14.2527 9.44297 14.7806 10.0443 15.0976 10.7596C15.4443 11.4874 15.6182 12.3214 15.6182 13.265C15.6182 13.6563 15.5959 14.0956 15.5531 14.5836C15.5069 15.1671 15.4308 15.7479 15.3253 16.3236L13.8611 24.9461H9.82642V24.9469ZM23.4992 25.2723C21.731 25.2723 20.4132 24.7671 19.5458 23.7585C18.6887 22.7506 18.2597 21.3995 18.2597 19.7084C18.2597 19.4044 18.2768 19.079 18.3094 18.7322C18.3522 18.3743 18.4121 17.9838 18.4883 17.5609L20.0168 8.67718H24.0514L22.5872 17.2672C22.5119 17.7013 22.452 18.0592 22.4083 18.3418C22.3767 18.6118 22.3607 18.8834 22.3603 19.1552C22.3603 20.9773 23.1627 21.8884 24.7681 21.8884C25.4403 21.8884 26.0371 21.7522 26.5577 21.4808C27.1117 21.181 27.6075 20.7846 28.0219 20.3103L27.6794 23.5804C27.0936 24.0582 26.4549 24.4673 25.776 24.7997C25.1252 25.1148 24.3674 25.2723 23.4992 25.2723ZM27.3061 24.9469L27.777 20.7821L29.9408 8.67718H33.9755L31.113 24.9461H27.3052L27.3061 24.9469ZM34.9525 24.9469L37.8158 8.67803H41.1347L41.1518 12.8095L38.9872 24.9461H34.9525V24.9469ZM44.7464 24.9469C45.0606 23.1676 45.3209 21.676 45.5273 20.4721C45.7439 19.258 45.9177 18.2716 46.0479 17.5121C46.178 16.7414 46.2756 16.1395 46.3407 15.7053C46.4169 15.2609 46.4657 14.9193 46.4871 14.6813C46.5197 14.4415 46.5359 14.2411 46.5359 14.0785C46.5359 13.1357 46.2705 12.5115 45.7396 12.2084C45.2249 11.8951 44.6331 11.7314 44.0305 11.7357C43.3686 11.7357 42.7941 11.8719 42.306 12.1433C41.818 12.4139 41.3513 12.7941 40.9069 13.2821L40.9882 10.0763C41.4335 9.6653 42.0509 9.28512 42.8429 8.93748C43.6379 8.58971 44.4969 8.41237 45.3646 8.41688C46.0582 8.41688 46.7363 8.54703 47.3982 8.80819C48.0704 9.06763 48.6398 9.48549 49.1064 10.0609C49.5834 10.6346 49.8711 11.3949 49.9687 12.3385L50.7496 13.509L48.7485 24.9461H44.7464V24.9469ZM54.4752 24.9469C54.8117 23.0375 55.0831 21.4645 55.2886 20.229C55.5053 18.9917 55.6739 18.0112 55.7938 17.2834C55.9231 16.5573 56.0156 16.0093 56.0695 15.6411C56.1235 15.2609 56.156 14.9904 56.1671 14.8277C56.1885 14.665 56.1997 14.5237 56.1997 14.4047C56.1997 13.3301 56.0044 12.6202 55.614 12.2726C55.2235 11.9147 54.6918 11.7357 54.0196 11.7357C53.2173 11.7357 52.5726 11.8984 52.0845 12.2238C51.6213 12.5225 51.245 12.938 50.9936 13.4286C50.7602 13.8901 50.5957 14.3834 50.5056 14.8928L49.3839 11.5405C49.3393 11.2374 49.5568 10.8418 50.0346 10.3537C50.5227 9.85453 51.2051 9.40928 52.0836 9.01882C52.9733 8.6181 53.9982 8.41688 55.1585 8.41688C56.9155 8.41688 58.2067 8.92207 59.0305 9.93074C59.855 10.9283 60.2669 12.2349 60.2669 13.8515C60.2669 14.0031 60.2558 14.1872 60.2344 14.4047C60.2232 14.6102 60.1856 14.9244 60.1205 15.3483C60.0377 15.9462 59.9455 16.5428 59.8439 17.1379C59.7138 17.9076 59.5399 18.9274 59.3233 20.1964C59.1178 21.4543 58.8464 23.0375 58.5099 24.9461H54.4752V24.9469ZM70.8725 25.2723C69.5924 25.2723 68.5187 24.9735 67.6513 24.3767C66.783 23.7696 66.1109 22.945 65.6339 21.9047L66.7077 21.1726L65.7641 24.9461H62.1524L66.4474 0.543581H70.5146L68.4973 11.883L67.9767 11.0045C68.3603 10.4478 68.8395 9.96335 69.3921 9.57368C69.9359 9.19818 70.5335 8.90719 71.1645 8.71057C71.7971 8.51644 72.4551 8.41774 73.1168 8.41773C74.408 8.41773 75.4929 8.72684 76.3706 9.34592C77.2499 9.953 77.9118 10.7827 78.3562 11.8351C78.8118 12.8763 79.0395 14.0468 79.0395 15.3491C79.0412 16.5846 78.8547 17.8132 78.4864 18.9925C78.1446 20.1424 77.6111 21.2262 76.9083 22.1984C76.2293 23.1287 75.3511 23.8958 74.3378 24.4435C73.3291 24.9966 72.174 25.2723 70.8725 25.2723ZM70.3194 21.9526C71.2407 21.9526 72.0439 21.6709 72.7272 21.1066C73.4105 20.5329 73.9362 19.7734 74.3053 18.829C74.6846 17.8854 74.8747 16.8553 74.8747 15.7379C74.8747 14.5451 74.6409 13.5801 74.1751 12.8429C73.7196 12.1048 72.9764 11.7357 71.9463 11.7357C70.9051 11.7357 70.0368 12.0457 69.3432 12.6639C68.6488 13.2813 68.1282 14.0785 67.7814 15.0546C67.4315 16.0474 67.2554 17.0931 67.2608 18.1457C67.2608 19.3179 67.4886 20.2444 67.9441 20.9285C68.4099 21.611 69.202 21.9526 70.3194 21.9526ZM89.0792 25.2723C87.7999 25.2723 86.7262 24.9735 85.8579 24.3767C84.9905 23.7696 84.3184 22.945 83.8406 21.9047L84.9143 21.1726L83.9707 24.9461H80.359L84.654 0.542725H88.7212L86.7039 11.8822L86.1833 11.0036C86.5671 10.4471 87.0463 9.96267 87.5987 9.57282C88.1429 9.19736 88.7408 8.90637 89.372 8.70972C90.0046 8.51567 90.6626 8.41698 91.3243 8.41688C92.6155 8.41688 93.6995 8.72598 94.578 9.34506C95.4566 9.95215 96.1185 10.7819 96.5629 11.8342C97.0184 12.8754 97.2461 14.0459 97.2461 15.3483C97.2479 16.5838 97.0614 17.8124 96.693 18.9917C96.3514 20.1416 95.8179 21.2255 95.1149 22.1975C94.4361 23.1281 93.5579 23.8952 92.5444 24.4426C91.5358 24.9957 90.3807 25.2723 89.0792 25.2723ZM88.526 21.9526C89.4482 21.9526 90.2505 21.6709 90.9338 21.1066C91.6171 20.5329 92.1437 19.7734 92.5119 18.829C92.8921 17.8854 93.0813 16.8553 93.0813 15.7379C93.0813 14.5451 92.8484 13.5801 92.3817 12.8429C91.9262 12.1048 91.1838 11.7357 90.1529 11.7357C89.1117 11.7357 88.2443 12.0457 87.5499 12.6639C86.8563 13.2813 86.3357 14.0785 85.9881 15.0546C85.6383 16.0474 85.4622 17.0931 85.4675 18.1457C85.4675 19.3179 85.6952 20.2444 86.1507 20.9285C86.6174 21.611 87.4095 21.9526 88.526 21.9526ZM107.287 25.2723C106.007 25.2723 104.933 24.9735 104.065 24.3767C103.198 23.7696 102.525 22.945 102.048 21.9047L103.122 21.1726L102.178 24.9461H98.5665L102.861 0.542725H106.929L104.911 11.8822L104.391 11.0036C104.775 10.4471 105.254 9.96267 105.806 9.57282C106.35 9.19719 106.948 8.90619 107.579 8.70972C108.212 8.51555 108.87 8.41685 109.532 8.41688C110.822 8.41688 111.907 8.72598 112.786 9.34506C113.664 9.95215 114.326 10.7819 114.77 11.8342C115.226 12.8754 115.454 14.0459 115.454 15.3483C115.455 16.5838 115.269 17.8124 114.9 18.9917C114.559 20.1416 114.025 21.2255 113.322 22.1975C112.643 23.1279 111.765 23.8949 110.752 24.4426C109.743 24.9957 108.588 25.2723 107.287 25.2723ZM106.733 21.9526C107.656 21.9526 108.458 21.6709 109.141 21.1066C109.825 20.5329 110.35 19.7734 110.719 18.829C111.099 17.8854 111.289 16.8553 111.289 15.7379C111.289 14.5451 111.056 13.5801 110.589 12.8429C110.134 12.1048 109.39 11.7357 108.36 11.7357C107.319 11.7357 106.452 12.0457 105.757 12.6639C105.063 13.2813 104.542 14.0785 104.196 15.0546C103.846 16.0474 103.67 17.0931 103.675 18.1457C103.675 19.3179 103.903 20.2444 104.358 20.9285C104.825 21.611 105.616 21.9526 106.733 21.9526ZM120.679 25.2723C119.507 25.2723 118.655 24.9683 118.124 24.3613C117.593 23.7422 117.327 22.9724 117.327 22.0511C117.327 21.801 117.36 21.4491 117.425 20.9936C117.5 20.5269 117.62 19.8376 117.783 18.9274L121.036 0.543581H125.071L121.785 19.2528L121.606 20.3266C121.577 20.5311 121.56 20.7373 121.557 20.9439C121.557 21.4431 121.692 21.736 121.964 21.8225C122.245 21.9098 122.62 21.9526 123.086 21.9526L122.143 25.2723H120.679ZM129.555 15.5923C129.935 15.6891 130.271 15.755 130.564 15.7867C130.867 15.8192 131.204 15.8355 131.573 15.8355C132.896 15.8355 133.921 15.7165 134.648 15.4776C135.385 15.2293 135.894 14.9142 136.177 14.534C136.47 14.1435 136.616 13.7428 136.616 13.3309C136.616 12.8429 136.48 12.4841 136.209 12.2563C135.958 12.0331 135.647 11.8866 135.315 11.8342C135.058 11.7773 134.796 11.7446 134.534 11.7366C133.655 11.7366 132.901 11.9798 132.272 12.4678C131.662 12.9341 131.148 13.5142 130.759 14.1761C130.39 14.8268 130.146 15.3962 130.027 15.8843L129.734 17.9016C129.745 18.9 129.93 19.6972 130.287 20.294C130.656 20.8789 131.127 21.3019 131.703 21.563C132.264 21.8204 132.875 21.9536 133.492 21.9535C134.469 21.9535 135.39 21.8233 136.258 21.563C137.068 21.3259 137.853 21.0099 138.601 20.6194L138.145 24.0359C137.483 24.3938 136.686 24.6918 135.754 24.9298C134.832 25.1576 133.818 25.2723 132.712 25.2723C131.062 25.2723 129.707 24.9632 128.644 24.3441C127.581 23.7156 126.795 22.8748 126.285 21.8225C125.775 20.7607 125.521 19.5773 125.521 18.2758C125.521 17.0291 125.737 15.8192 126.171 14.6487C126.595 13.4935 127.223 12.4241 128.026 11.4917C128.825 10.5505 129.811 9.78591 130.922 9.24659C132.05 8.69345 133.307 8.41688 134.696 8.41688C136.421 8.41688 137.733 8.851 138.633 9.71839C139.544 10.5755 140 11.7143 140 13.1349C140 14.1221 139.789 14.957 139.366 15.6411C138.934 16.3319 138.335 16.9027 137.625 17.3006C136.898 17.7116 136.068 18.0112 135.136 18.1945C134.176 18.3827 133.201 18.4756 132.223 18.4719C131.627 18.4719 131.073 18.4445 130.564 18.3897C130.142 18.3506 129.723 18.2799 129.311 18.1782L129.555 15.5923Z" fill="white" />
</svg>
