<svg width="141" height="33" viewBox="0 0 141 33" fill="none" xmlns="http://www.w3.org/2000/svg">
<path fill-rule="evenodd" clip-rule="evenodd" d="M17.1773 0.241211L0.200012 17.2185L2.65029 19.6688L19.6276 2.69149L17.1773 0.241211ZM19.6027 6.82426L2.62535 23.8016L5.07562 26.2519L22.053 9.27454L19.6027 6.82426ZM5.05068 30.3846L22.028 13.4073L24.4783 15.8576L7.50096 32.8349L5.05068 30.3846ZM31.8215 20.219L34.9924 17.0037L41.3343 24.2991H43.2857L36.1012 15.8063L42.82 8.77698H40.9352L31.8215 18.1568V8.77698H30.1806V24.2991H31.8215V20.219ZM47.9763 23.4121C49.2333 24.0926 50.6296 24.4322 52.168 24.4322C53.7049 24.4322 55.0874 24.0919 56.3139 23.4121C57.5557 22.7323 58.5313 21.7934 59.2416 20.596C59.9512 19.384 60.3053 18.0314 60.3053 16.538C60.3053 15.0454 59.9505 13.6997 59.2416 12.5023C58.5313 11.2903 57.5564 10.3437 56.3139 9.66396C55.0874 8.98348 53.7056 8.64393 52.1673 8.64393C50.6303 8.64393 49.2333 8.9911 47.977 9.68613C46.7345 10.3659 45.7588 11.3049 45.05 12.5023C44.3542 13.6997 44.0078 15.0447 44.0078 16.538C44.0078 18.0307 44.3549 19.3764 45.0493 20.5738C45.7588 21.7712 46.7352 22.7171 47.9763 23.4121ZM55.4941 22.1482C54.5032 22.6949 53.3945 22.9686 52.168 22.9686H52.1673C50.9407 22.9686 49.8244 22.6956 48.8189 22.1482C47.8444 21.602 47.0331 20.806 46.4684 19.842C45.9071 18.8518 45.6265 17.7507 45.6265 16.538C45.6265 15.3261 45.9071 14.2319 46.4684 13.2562C47.0246 12.2857 47.838 11.4877 48.8189 10.9501C49.8244 10.3881 50.9408 10.1074 52.168 10.1074C53.3945 10.1074 54.5032 10.3888 55.4941 10.9501C56.4718 11.4844 57.2789 12.2837 57.8225 13.2562C58.3837 14.2319 58.6651 15.3254 58.6651 16.538C58.6651 17.75 58.3837 18.8511 57.8225 19.842C57.2704 20.8081 56.4654 21.6054 55.4941 22.1482ZM78.53 24.2991H80.1043V8.77698H78.7517L72.0772 20.2855L65.3361 8.77698H63.9835V24.2991H65.5579V11.9479L71.6559 22.3256H72.432L78.53 11.8814V24.2991ZM95.6286 10.1961C94.5046 9.25026 92.9524 8.77698 90.9719 8.77698H85.1622V24.2991H86.8031V19.3986H90.9719C92.9524 19.3986 94.5046 18.9329 95.6286 18.0016C96.7518 17.0557 97.3138 15.755 97.3138 14.0989C97.3138 12.4434 96.7518 11.142 95.6286 10.1961ZM94.4533 16.9594C93.6398 17.6246 92.4645 17.9572 90.9276 17.9572H86.8031V10.1961H90.9276C92.4645 10.1961 93.6398 10.5364 94.4533 11.2162C95.2661 11.8814 95.6729 12.8425 95.6729 14.0989C95.6729 15.3261 95.2661 16.2796 94.4533 16.9594ZM102.503 8.77698H100.862V24.2991H111.195V22.8799H102.503V8.77698ZM124.896 24.2991V22.8799H115.561V17.1146H123.588V15.7176H115.561V10.1961H124.563V8.77698H113.92V24.2991H124.896ZM133.282 17.4694L138.293 24.2991H140.2L134.279 16.272L139.779 8.77698H138.005L133.348 15.1189L128.669 8.77698H126.784L132.306 16.3163L126.407 24.2991H128.292L133.282 17.4694Z" fill="white" />
</svg>
