<svg width="141" height="24" viewBox="0 0 141 24" fill="none" xmlns="http://www.w3.org/2000/svg">
<path fill-rule="evenodd" clip-rule="evenodd" d="M0.600098 11.9079L28.9746 0.121582L21.1171 23.6943L0.600098 11.9079ZM125.325 0.627958V23.2577H129.348V15.2116C129.348 13.7868 129.715 12.6762 130.448 11.88C131.202 11.0838 132.145 10.6856 133.277 10.6856C134.429 10.6856 135.267 11.0419 135.791 11.7543C136.336 12.4667 136.608 13.4934 136.608 14.8344V23.2577H140.6V14.4573C140.6 12.1105 140.066 10.3294 138.997 9.11413C137.949 7.89883 136.462 7.29117 134.534 7.29117C133.382 7.29117 132.355 7.54262 131.454 8.0455C130.585 8.51648 129.858 9.21093 129.348 10.057V0.627958H125.325ZM40.7994 1.25656L32.7524 23.2577H36.964L38.7556 18.166H47.336L49.0961 23.2577H53.3706L45.3245 1.25656H40.7994ZM46.2368 15.023H39.8565L43.031 5.87681L46.2368 15.023ZM56.1112 7.66834V23.2577H60.1343V15.2116C60.1343 13.7868 60.4905 12.6762 61.2029 11.88C61.9363 11.0838 62.8687 10.6856 64.0002 10.6856C65.1526 10.6856 66.0012 11.0419 66.546 11.7543C67.0908 12.4667 67.3632 13.4934 67.3632 14.8344V23.2577H71.3863V14.4573C71.3863 12.1105 70.852 10.3294 69.7833 9.11413C68.7147 7.89883 67.2165 7.29117 65.2888 7.29117C64.0526 7.29117 62.9735 7.56357 62.0515 8.10836C61.1685 8.63408 60.45 9.39611 59.9771 10.3085L59.6628 7.66834H56.1112ZM82.7134 23.6349C81.2048 23.6349 79.8428 23.2892 78.6275 22.5977C77.4392 21.9124 76.4527 20.9258 75.7673 19.7376C75.0759 18.5013 74.7301 17.0765 74.7301 15.463C74.7301 13.8496 75.0863 12.4353 75.7987 11.22C76.5112 9.9837 77.4646 9.01984 78.6589 8.32837C79.8742 7.63691 81.2362 7.29117 82.7448 7.29117C84.2325 7.29117 85.5736 7.63691 86.7679 8.32837C87.9714 9.00785 88.9618 10.0091 89.6281 11.22C90.3405 12.4353 90.6967 13.8496 90.6967 15.463C90.6967 17.0765 90.3405 18.5013 89.6281 19.7376C88.9546 20.9349 87.9652 21.9242 86.7679 22.5977C85.5526 23.2892 84.2011 23.6349 82.7134 23.6349ZM82.7134 20.1462C83.7611 20.1462 84.6726 19.7585 85.4478 18.9832C86.2231 18.187 86.6108 17.0136 86.6108 15.463C86.6108 13.9125 86.2231 12.7496 85.4478 11.9743C84.6726 11.1781 83.7716 10.7799 82.7448 10.7799C81.6762 10.7799 80.7543 11.1781 79.979 11.9743C79.2246 12.7496 78.8475 13.9125 78.8475 15.463C78.8475 17.0136 79.2246 18.187 79.979 18.9832C80.7543 19.7585 81.6657 20.1462 82.7134 20.1462ZM97.8768 7.66834H94.2937V23.2577H98.3168V16.1545C98.3168 14.9602 98.5054 14.0277 98.8825 13.3572C99.2807 12.6867 99.8254 12.2152 100.517 11.9429C101.208 11.6705 101.994 11.5343 102.874 11.5343H104.006V7.29117C102.686 7.29117 101.533 7.595 100.548 8.20265C99.5884 8.78525 98.7974 9.60872 98.2539 10.5914L97.8768 7.66834ZM114.117 23.6349C112.524 23.6349 111.12 23.2892 109.905 22.5977C108.697 21.9136 107.698 20.9141 107.013 19.7061C106.322 18.4699 105.976 17.0555 105.976 15.463C105.976 13.8706 106.322 12.4562 107.013 11.22C107.698 10.012 108.697 9.01251 109.905 8.32837C111.12 7.63691 112.524 7.29117 114.117 7.29117C116.107 7.29117 117.783 7.81501 119.145 8.86269C120.507 9.88941 121.377 11.3142 121.754 13.1372H117.511C117.302 12.3829 116.882 11.7962 116.254 11.3771C115.646 10.9371 114.923 10.7171 114.085 10.7171C112.975 10.7171 112.032 11.1361 111.256 11.9743C110.481 12.8124 110.094 13.9753 110.094 15.463C110.094 16.9507 110.481 18.1137 111.256 18.9518C112.032 19.7899 112.975 20.209 114.085 20.209C114.923 20.209 115.646 19.9995 116.254 19.5804C116.882 19.1613 117.302 18.5642 117.511 17.7889H121.754C121.377 19.549 120.507 20.9633 119.145 22.032C117.783 23.1006 116.107 23.6349 114.117 23.6349Z" fill="white" />
</svg>
