<svg width="141" height="25" viewBox="0 0 141 25" fill="none" xmlns="http://www.w3.org/2000/svg">
<path d="M27.7079 6.75967L19.7024 24.628H13.6493L12.8808 13.036L7.91735 24.628H1.89808L0.200012 6.75967H5.6758L5.93198 19.5365L11.2156 6.75967H17.0116L17.8122 19.5365L22.5515 6.75967H27.7079ZM37.7691 6.5035C40.0747 6.5035 41.9 7.13326 43.2449 8.3928C44.6112 9.63099 45.2943 11.3282 45.2943 13.4843C45.2943 14.1888 45.241 14.8186 45.1342 15.3736C45.0488 15.8646 44.9207 16.3877 44.75 16.9427H32.3574C32.3316 17.1445 32.3209 17.3478 32.3254 17.5511C32.3254 18.4905 32.5815 19.2056 33.0939 19.6966C33.6062 20.1876 34.2894 20.4331 35.1433 20.4331C36.5096 20.4331 37.5556 19.8567 38.2815 18.7039H44.1095C43.341 20.5185 42.0921 22.0022 40.3629 23.155C38.6337 24.3078 36.691 24.8842 34.5349 24.8842C32.2293 24.8842 30.3827 24.2438 28.9951 22.9629C27.6288 21.682 26.9456 19.9421 26.9456 17.7433C26.9456 17.0815 27.0097 16.3983 27.1378 15.6939C27.458 13.8366 28.1198 12.2141 29.1231 10.8265C30.1265 9.43886 31.3754 8.37145 32.8697 7.62427C34.3641 6.87709 35.9972 6.5035 37.7691 6.5035ZM39.7545 14.1568C39.7876 13.9554 39.809 13.7522 39.8185 13.5484C39.8185 12.6944 39.5517 12.0433 39.018 11.595C38.4843 11.1254 37.7798 10.8905 36.9045 10.8905C35.9968 10.8796 35.1136 11.1854 34.4068 11.7551C33.7023 12.3102 33.19 13.1107 32.8697 14.1568H39.7545ZM56.0289 0.931641L51.834 24.628H46.3582L50.5531 0.931641H56.0289ZM65.4727 0.931641L61.2778 24.628H55.802L59.9969 0.931641H65.4727ZM73.4116 9.28853C74.0947 8.45685 74.9593 7.78438 76.0054 7.27203C77.0514 6.75967 78.1935 6.5035 79.4317 6.5035C81.3531 6.5035 82.9008 7.13326 84.0749 8.3928C85.2704 9.63099 85.8682 11.3282 85.8682 13.4843C85.8682 14.1675 85.8041 14.8933 85.6761 15.6618C85.3558 17.4978 84.7261 19.1202 83.7867 20.5292C82.8474 21.9168 81.716 22.9949 80.3924 23.7634C79.0688 24.5106 77.6705 24.8842 76.1975 24.8842C74.938 24.8842 73.8812 24.6387 73.0273 24.1477C72.1734 23.6353 71.5543 22.9629 71.17 22.1303L70.7217 24.628H65.2459L69.4408 0.931641H74.9166L73.4116 9.28942V9.28853ZM80.1362 15.6618C80.2003 15.2989 80.2323 14.968 80.2323 14.6691C80.2323 13.6017 79.9227 12.7692 79.3036 12.1714C78.7059 11.5737 77.9374 11.2748 76.998 11.2748C75.9093 11.2748 74.9166 11.6697 74.02 12.4596C73.1234 13.2495 72.547 14.3276 72.2908 15.6939C72.2299 16.0429 72.1977 16.3963 72.1947 16.7506C72.1947 17.7966 72.4936 18.6185 73.0913 19.2163C73.6891 19.814 74.4576 20.1129 75.3969 20.1129C76.4857 20.1129 77.4784 19.718 78.375 18.9281C79.293 18.1169 79.88 17.0281 80.1362 15.6618ZM95.1457 24.8842C93.6086 24.8842 92.2424 24.5747 91.0469 23.9556C89.8514 23.3365 88.9227 22.4612 88.261 21.3298C87.6205 20.1983 87.3003 18.8854 87.3003 17.391C87.3003 15.363 87.7806 13.5163 88.7413 11.8512C89.6796 10.208 91.0538 8.85599 92.712 7.94449C94.3985 6.98383 96.2772 6.5035 98.3479 6.5035C99.885 6.5035 101.251 6.82372 102.447 7.46416C103.664 8.08326 104.603 8.95853 105.265 10.09C105.927 11.2214 106.257 12.5343 106.257 14.0287C106.257 16.0781 105.766 17.9354 104.784 19.6006C103.824 21.2444 102.489 22.5359 100.782 23.4752C99.0951 24.4146 97.2165 24.8842 95.1457 24.8842ZM95.9143 20.177C96.8109 20.177 97.6114 19.9101 98.3159 19.3764C99.0401 18.8234 99.6129 18.0965 99.9811 17.2629C100.381 16.4114 100.589 15.482 100.589 14.5411C100.589 13.4737 100.301 12.6517 99.7249 12.0754C99.1485 11.499 98.4227 11.2108 97.5474 11.2108C96.6294 11.2108 95.8182 11.4883 95.1137 12.0433C94.4306 12.577 93.8969 13.2815 93.5126 14.1568C93.1299 15.0243 92.9336 15.9625 92.9362 16.9107C92.9362 17.9568 93.2137 18.768 93.7688 19.3444C94.3238 19.8994 95.039 20.177 95.9143 20.177ZM114.798 18.4798C114.777 18.5865 114.766 18.7253 114.766 18.8961C114.766 19.2803 114.873 19.5579 115.087 19.7286C115.321 19.8994 115.695 19.9848 116.207 19.9848H118.161L117.328 24.628H114.542C110.956 24.628 109.163 23.123 109.163 20.1129C109.163 19.6646 109.216 19.0989 109.323 18.4157L110.604 11.3068H108.426L109.227 6.75967H111.404L112.173 2.40466H117.648L116.88 6.75967H120.466L119.666 11.3068H116.079L114.798 18.4798ZM134.532 6.56665C136.283 6.56665 137.66 7.06922 138.663 8.07258C139.688 9.07594 140.2 10.4742 140.2 12.2675C140.2 12.8652 140.136 13.5057 140.008 14.1888L138.151 24.628H132.707L134.436 14.9253C134.5 14.5624 134.532 14.2422 134.532 13.9647C134.532 13.068 134.276 12.3742 133.764 11.8832C133.273 11.3922 132.579 11.1467 131.682 11.1467C130.615 11.1467 129.718 11.4776 128.992 12.1394C128.266 12.8012 127.797 13.7298 127.583 14.9253V14.8613L125.854 24.628H120.378L124.573 0.931641H130.049L128.608 9.12931C129.312 8.33943 130.177 7.72034 131.202 7.27203C132.226 6.80237 133.337 6.56665 134.532 6.56665Z" fill="white" />
</svg>
