<svg width="48" height="49" viewBox="0 0 48 49" fill="none" xmlns="http://www.w3.org/2000/svg">
<path d="M40.9706 7.52944C36.4697 3.02856 30.3652 0.5 24 0.5C17.6348 0.5 11.5303 3.02856 7.02944 7.52944C2.52856 12.0303 4.74244e-08 18.1348 0 24.5C-4.74244e-08 30.8652 2.52856 36.9697 7.02944 41.4706C11.5303 45.9714 17.6348 48.5 24 48.5C30.3652 48.5 36.4697 45.9714 40.9706 41.4706C45.4714 36.9697 48 30.8652 48 24.5C48 18.1348 45.4714 12.0303 40.9706 7.52944ZM38.3606 10.1417C39.3072 11.0924 40.1575 12.1344 40.899 13.2524L33.1268 22.4231L26.6838 4.37255C31.1073 4.95037 35.214 6.97941 38.3606 10.1417ZM30.3668 25.6538L26.1761 30.5853L19.8093 29.4315L17.6332 23.3462L21.8239 18.4147L28.1907 19.5685L30.3668 25.6538ZM9.6394 10.1417C13.126 6.63619 17.7794 4.53449 22.7146 4.2364L26.7554 15.544L7.91558 12.1125C8.4472 11.4191 9.023 10.7609 9.6394 10.1417ZM5.22715 32.2399C4.13163 29.5647 3.61716 26.6871 3.71781 23.798C3.81846 20.9089 4.53195 18.0742 5.81099 15.4816L17.6285 17.6393L5.22715 32.2399ZM9.6394 38.8583C8.69278 37.9076 7.8425 36.8656 7.10097 35.7476L14.8732 26.5769L21.3162 44.6182C16.8939 44.0429 12.7873 42.0172 9.6394 38.8583ZM38.3606 38.8583C34.874 42.3638 30.2206 44.4655 25.2854 44.7636L21.2446 33.456L40.0844 36.8968C39.5525 37.5869 38.9767 38.2421 38.3606 38.8583ZM30.3715 31.3607L42.7728 16.7601C43.8684 19.4353 44.3828 22.3129 44.2822 25.202C44.1815 28.0911 43.4681 30.9258 42.189 33.5184L30.3715 31.3607Z" fill="currentColor"/>
</svg>