<svg width="141" height="33" viewBox="0 0 141 33" fill="none" xmlns="http://www.w3.org/2000/svg">
<path fill-rule="evenodd" clip-rule="evenodd" d="M34.4278 23.5402C34.5985 22.8767 35.0803 21.9884 35.8732 20.8742L38.283 17.4695H46.185L46.4729 22.7372C46.5161 23.8293 46.3233 24.547 45.8947 24.8893C45.4671 25.2105 44.7384 25.3922 43.7106 25.4353L43.5821 26.0777C44.0107 26.0346 44.5668 26.0135 45.2523 26.0135C45.9379 25.9914 46.6656 25.9814 47.4365 25.9814C48.0683 25.9816 48.7001 25.9923 49.3316 26.0135C49.8677 26.0089 50.4036 26.0304 50.9376 26.0777L51.0661 25.4353C50.7449 25.4142 50.4127 25.2637 50.0704 24.9856C49.7492 24.6855 49.5564 24.1505 49.4922 23.3796L48.2074 3.17601H47.7256L33.8818 22.6409C33.4542 23.2622 33.0467 23.7651 32.6612 24.1505C32.2758 24.5359 31.9225 24.8361 31.6013 25.0499C31.2801 25.2426 30.9699 25.3711 30.6698 25.4353L30.5092 26.0777C30.8515 26.0346 31.2048 26.0135 31.5691 26.0135C31.9335 25.9914 32.3832 25.9814 32.9182 25.9814C33.5179 25.9821 34.1176 25.9928 34.7169 26.0135C35.3385 26.0127 35.9599 26.0342 36.5799 26.0777L36.7405 25.4353C35.8622 25.4142 35.2198 25.2637 34.8133 24.9856C34.4068 24.6855 34.2773 24.2037 34.4278 23.5402ZM46.1499 16.8271L45.6185 7.1051L38.7377 16.8271H46.1499ZM54.5963 26.0777H57.3908L58.0152 23.6056C58.3996 22.3115 58.8126 21.026 59.2537 19.75C59.7409 18.3929 60.2765 17.0537 60.8597 15.735C61.4168 14.5144 61.9629 13.4756 62.4979 12.6194C63.055 11.7421 63.59 11.0776 64.1039 10.6279C64.6389 10.1571 65.1538 9.92125 65.6457 9.92125C65.7115 9.91764 65.7773 9.92861 65.8384 9.95337C65.8988 9.97238 65.9538 10.0054 65.999 10.0497C65.7209 10.1571 65.474 10.3067 65.2602 10.4994C65.0464 10.6921 64.8748 10.928 64.7463 11.2061C64.6178 11.463 64.5536 11.7631 64.5536 12.1054C64.5536 12.4698 64.671 12.7589 64.9069 12.9727C65.1638 13.1654 65.474 13.2618 65.8384 13.2618C66.2449 13.2618 66.6093 13.1654 66.9305 12.9727C67.2737 12.7589 67.5518 12.4798 67.7656 12.1375C67.9794 11.7732 68.0868 11.3777 68.0868 10.9491C68.0868 10.4141 67.9151 9.97445 67.5729 9.63217C67.2517 9.28889 66.7909 9.11825 66.1917 9.11825C65.485 9.11825 64.8105 9.32201 64.1681 9.72853C63.5468 10.114 62.9365 10.7564 62.3373 11.6557C61.738 12.534 61.1278 13.6894 60.5064 15.1247C60.191 15.8804 59.8605 16.7278 59.5151 17.667L60.5385 13.6151C60.6682 13.1169 60.7754 12.6132 60.8597 12.1054C60.9661 11.5704 60.9993 11.0776 60.9561 10.6279C60.935 10.1782 60.7845 9.81385 60.5064 9.53581C60.2495 9.25777 59.7998 9.11825 59.1574 9.11825C58.7298 9.11825 58.268 9.21461 57.7762 9.40733C57.3054 9.57797 56.8447 9.89917 56.395 10.3709C55.9664 10.8417 55.592 11.5273 55.2708 12.4266L54.4678 14.7714H55.0781L55.4957 13.583C55.9233 12.3835 56.3308 11.5373 56.7162 11.0455C57.1017 10.5526 57.5293 10.3067 58.001 10.3067C58.3654 10.3067 58.5792 10.4563 58.6435 10.7564C58.7288 11.0565 58.6645 11.5704 58.4507 12.2981L54.5963 26.0777ZM74.3261 10.5958C74.9685 10.0387 75.632 9.76065 76.3176 9.76065C76.9389 9.76065 77.3986 9.98549 77.6988 10.4352C77.9979 10.8638 78.1484 11.5704 78.1484 12.5551C78.1484 13.7114 78.041 14.9109 77.8272 16.1526C77.6134 17.3731 77.3133 18.5616 76.9279 19.7179C76.5424 20.8742 76.0817 21.9232 75.5467 22.8657C75.0117 23.7871 74.4225 24.5249 73.7801 25.082C73.1588 25.617 72.5063 25.885 71.8208 25.885C71.2215 25.885 70.7608 25.6602 70.4396 25.2105C70.1405 24.7608 69.9899 24.0541 69.9899 23.0905C69.9953 21.8951 70.1028 20.7023 70.3111 19.5252C70.5198 18.3051 70.8204 17.1025 71.2105 15.9277C71.618 14.7714 72.0777 13.7325 72.5916 12.8121C73.1266 11.8705 73.7048 11.1308 74.3261 10.5958ZM67.613 18.401C67.356 19.5142 67.2276 20.542 67.2276 21.4845C67.2276 23.1769 67.6231 24.4396 68.416 25.2747C69.2291 26.1098 70.3001 26.5274 71.628 26.5274C72.8265 26.5274 73.9196 26.2594 74.9043 25.7244C75.8915 25.1658 76.7635 24.4245 77.4739 23.5402C78.2306 22.6295 78.8675 21.6256 79.369 20.553C79.8712 19.4946 80.2588 18.3855 80.5253 17.2447C80.7823 16.1315 80.9108 15.1036 80.9108 14.1611C80.9108 12.4487 80.5033 11.184 79.6902 10.3709C78.8982 9.53581 77.8383 9.11825 76.5103 9.11825C75.3118 9.11825 74.2187 9.39629 73.234 9.95337C72.2375 10.4982 71.3544 11.2287 70.6323 12.1054C69.8932 13.0225 69.2677 14.0255 68.7693 15.0926C68.2554 16.1847 67.87 17.2868 67.613 18.401ZM83.3288 26.0777H86.1233L86.5756 24.2869C87.0666 22.4764 87.6554 20.6938 88.3396 18.947C89.0241 17.1915 89.7318 15.6597 90.4595 14.3538C91.2083 13.0269 91.937 11.998 92.6437 11.2703C93.3714 10.5205 94.0359 10.1461 94.6351 10.1461C95.0416 10.1461 95.2986 10.2856 95.406 10.5637C95.5345 10.8206 95.5666 11.1529 95.5024 11.5594C95.4524 11.9968 95.3555 12.4275 95.2133 12.8442L91.1983 26.0777H94.0891L94.3192 25.2273L94.2818 25.4353C94.9095 23.3745 95.6167 21.3387 96.4017 19.3325C97.1515 17.4695 97.9003 15.8525 98.6502 14.4823C99.4 13.0901 100.128 12.0201 100.834 11.2703C101.541 10.5205 102.215 10.1461 102.858 10.1461C103.329 10.1461 103.565 10.4352 103.565 11.0133C103.565 11.5694 103.457 12.1807 103.243 12.8442L100.192 22.0306C99.935 22.8225 99.7633 23.5292 99.678 24.1505C99.5927 24.7497 99.678 25.2536 99.935 25.6602C100.112 25.9225 100.356 26.1331 100.642 26.2704C100.963 26.4421 101.391 26.5274 101.926 26.5274C102.401 26.5223 102.871 26.4241 103.308 26.2383C103.8 26.0677 104.26 25.7465 104.689 25.2747C105.138 24.804 105.513 24.1184 105.813 23.219L106.616 20.8742H106.006L105.588 22.0627C105.138 23.3475 104.71 24.2147 104.303 24.6644C103.918 25.1141 103.521 25.339 103.115 25.339C102.686 25.339 102.44 25.1784 102.376 24.8571C102.312 24.5149 102.387 24.011 102.601 23.3475L105.717 13.9684C105.948 13.2611 106.089 12.5271 106.134 11.7842C106.198 11.0344 106.07 10.4031 105.749 9.88913C105.428 9.37521 104.817 9.11825 103.918 9.11825C103.078 9.1136 102.253 9.3475 101.541 9.79277C100.813 10.2214 100.107 10.917 99.421 11.8806C98.7355 12.8442 98.0399 14.1079 97.3332 15.6708C96.9659 16.4723 96.5812 17.3662 96.1791 18.3528L97.3653 13.9684C97.4972 13.4383 97.6044 12.9024 97.6865 12.3624C97.794 11.8053 97.815 11.2803 97.7508 10.7885C97.6865 10.2957 97.4938 9.90018 97.1726 9.60005C96.8725 9.27885 96.3807 9.11825 95.6951 9.11825C94.7104 9.11825 93.7789 9.43945 92.9006 10.0819C92.0444 10.7243 91.1872 11.7953 90.331 13.2939C89.671 14.4491 88.9723 15.9227 88.2356 17.7145L89.2711 13.6151C89.4038 13.1263 89.5216 12.6335 89.6244 12.1375C89.7308 11.6236 89.7639 11.1418 89.7207 10.6921C89.6997 10.2204 89.5491 9.84597 89.2711 9.56793C88.993 9.26881 88.5323 9.11825 87.8899 9.11825C87.4623 9.11825 87.0006 9.21461 86.5087 9.40733C86.038 9.57797 85.5772 9.89917 85.1276 10.3709C84.699 10.8417 84.3245 11.5273 84.0033 12.4266L83.2003 14.7714H83.8106L84.2282 13.583C84.6558 12.3835 85.0633 11.5373 85.4488 11.0455C85.8342 10.5526 86.2618 10.3067 86.7336 10.3067C87.0758 10.3067 87.2796 10.4352 87.3438 10.6921C87.4081 10.9491 87.4081 11.2382 87.3438 11.5594C87.3007 11.8595 87.2475 12.1054 87.1832 12.2981L83.3288 26.0777ZM114.215 24.5359C113.552 25.1784 112.963 25.4996 112.449 25.4996C112.107 25.4996 111.827 25.3179 111.614 24.9535C111.421 24.5891 111.325 23.9467 111.325 23.0263C111.33 21.8384 111.459 20.6543 111.71 19.4931C111.983 18.2682 112.348 17.0656 112.802 15.8956C113.234 14.8183 113.749 13.7765 114.344 12.78C114.922 11.8384 115.511 11.0987 116.11 10.5637C116.732 10.0066 117.32 9.72853 117.877 9.72853C118.563 9.72853 119.055 10.0819 119.355 10.7885C119.63 11.4184 119.715 12.2381 119.611 13.2467L119.038 15.511C118.779 16.3812 118.478 17.2386 118.134 18.0798C117.556 19.4931 116.925 20.7558 116.239 21.87C115.553 22.9831 114.879 23.8725 114.215 24.5359ZM117.979 19.6933C117.495 20.8308 117.012 21.8133 116.528 22.6409C115.714 24.011 114.89 25.0067 114.055 25.628C113.22 26.2273 112.374 26.5274 111.517 26.5274C110.511 26.5274 109.751 26.163 109.237 25.4353C108.744 24.7076 108.498 23.7761 108.498 22.6409C108.498 21.613 108.67 20.4998 109.012 19.3004C109.367 18.0484 109.84 16.833 110.425 15.6708C111.021 14.5109 111.731 13.4133 112.545 12.3945C113.337 11.4098 114.194 10.6179 115.115 10.0176C116.057 9.41837 117.01 9.11825 117.973 9.11825C118.723 9.11825 119.29 9.49265 119.676 10.2425C119.877 10.6018 119.999 11.0346 120.044 11.5404L120.543 9.56793C121.059 9.54641 121.573 9.50354 122.085 9.43945C122.599 9.37521 123.07 9.26881 123.498 9.11825L119.483 23.3154C119.44 23.5081 119.376 23.7651 119.29 24.0863C119.226 24.3609 119.226 24.6467 119.29 24.9214C119.376 25.1784 119.601 25.3068 119.965 25.3068C120.394 25.3068 120.811 25.0709 121.218 24.6002C121.624 24.1284 122.032 23.2722 122.438 22.0306L122.824 20.8421H123.434L122.631 23.1869C122.331 24.0431 121.967 24.7176 121.539 25.2105C121.132 25.6822 120.704 26.0135 120.254 26.2062C119.845 26.4106 119.395 26.5204 118.937 26.5274C118.102 26.5274 117.513 26.2494 117.17 25.6923C116.892 25.2004 116.817 24.6323 116.946 23.9899C117.074 23.3264 117.224 22.6619 117.395 21.9984L117.979 19.6933ZM130.249 9.56793H127.367L127.174 10.2103H130.077L124.219 32.1163C124.647 31.9658 125.107 31.8594 125.6 31.7951C126.101 31.7301 126.605 31.6873 127.11 31.6666L132.871 10.2103H136.649L136.842 9.56793H133.043L133.052 9.53581C133.33 8.4648 133.587 7.448 133.823 6.48439C134.047 5.62532 134.315 4.77836 134.626 3.9469C134.926 3.19709 135.268 2.64101 135.654 2.27664C135.899 2.05516 136.169 1.86128 136.457 1.69848C136.757 1.52684 137.11 1.44152 137.517 1.44152C137.945 1.44152 138.299 1.52784 138.577 1.69848C138.855 1.84804 138.994 2.01968 138.994 2.2124C138.459 2.36297 138.019 2.62997 137.677 3.01541C137.335 3.37977 137.163 3.82946 137.163 4.36446C137.142 4.70674 137.249 4.97474 137.484 5.16746C137.72 5.36019 138.042 5.45654 138.448 5.45654C138.855 5.45654 139.219 5.34914 139.54 5.13534C139.86 4.92252 140.124 4.63616 140.311 4.30022C140.504 3.95794 140.6 3.60461 140.6 3.24025C140.6 2.59785 140.332 2.06284 139.797 1.63424C139.283 1.18456 138.533 0.959717 137.549 0.959717C136.788 0.961995 136.034 1.11482 135.332 1.4094C134.659 1.66624 134.047 2.05998 133.534 2.56573C132.806 3.27237 132.185 4.18177 131.671 5.29594C131.178 6.40911 130.707 7.8224 130.257 9.53581L130.249 9.56793ZM20.5282 7.66791C22.1764 11.1379 19.1541 16.0232 13.7749 18.5797C8.39681 21.1363 2.69949 20.3965 1.05031 16.9266C-0.598856 13.4566 2.42446 8.57129 7.80258 6.01472C13.1807 3.45816 18.879 4.19793 20.5282 7.66791ZM24.1748 20.1536C25.293 22.5064 23.2434 25.8178 19.5967 27.5513C15.9511 29.2848 12.0886 28.7829 10.9704 26.4311C9.85225 24.0783 11.9019 20.7669 15.5486 19.0334C19.1952 17.3 23.0567 17.8018 24.1748 20.1536Z" fill="white" />
</svg>
