<svg width="141" height="33" viewBox="0 0 141 33" fill="none" xmlns="http://www.w3.org/2000/svg">
<path fill-rule="evenodd" clip-rule="evenodd" d="M18.4456 18.3026C23.3184 18.3026 27.2683 14.3527 27.2683 9.47986C27.2683 4.60705 23.3184 0.657104 18.4456 0.657104C13.5728 0.657104 9.62281 4.60705 9.62281 9.47986C9.62281 14.3527 13.5728 18.3026 18.4456 18.3026ZM8.33074 21.4219C9.15804 20.5946 9.62281 19.4726 9.62281 18.3026C9.62281 17.1327 9.15804 16.0106 8.33074 15.1833C7.50345 14.356 6.3814 13.8912 5.21143 13.8912C4.04146 13.8912 2.91941 14.356 2.09211 15.1833C1.26482 16.0106 0.800049 17.1327 0.800049 18.3026C0.800049 19.4726 1.26482 20.5946 2.09211 21.4219C2.91941 22.2492 4.04146 22.714 5.21143 22.714C6.3814 22.714 7.50345 22.2492 8.33074 21.4219ZM19.4127 30.7394C18.3372 31.8148 16.8786 32.419 15.3576 32.419C13.8366 32.419 12.378 31.8148 11.3025 30.7394C10.227 29.6639 9.62281 28.2052 9.62281 26.6842C9.62281 25.1633 10.227 23.7046 11.3025 22.6291C12.378 21.5536 13.8366 20.9494 15.3576 20.9494C16.8786 20.9494 18.3372 21.5536 19.4127 22.6291C20.4882 23.7046 21.0924 25.1633 21.0924 26.6842C21.0924 28.2052 20.4882 29.6639 19.4127 30.7394ZM45.9581 23.1878H50.0872V7.13041H45.9581V13.4387H40.2233V7.13041H36.0943V23.1878H40.2233V16.6502H45.9581V23.1878ZM52.8505 27.0875C54.0283 27.2401 55.0226 27.3169 55.8326 27.3169C57.0413 27.3169 57.9968 27.0028 58.7 26.3764C59.4031 25.7641 59.9775 24.8553 60.4204 23.6466L65.0082 11.0301H60.7645L58.3559 18.8294L55.4885 11.0301H51.2447L55.9472 22.2703C56.1925 22.8517 56.2225 23.3025 56.039 23.6237C55.8714 23.9448 55.4964 24.1054 54.915 24.1054H52.8505V27.0875ZM73.8521 22.0409L74.0815 23.1878H77.6371V7.13041H73.6228V11.0301H68.9202C67.7733 11.0301 66.8716 11.3592 66.2134 12.0164C65.5711 12.6587 65.25 13.5534 65.25 14.7003V19.9763C65.25 21.0165 65.5641 21.8503 66.1905 22.4767C66.8178 23.104 67.6515 23.4172 68.6908 23.4172H69.7231C70.2436 23.4172 70.878 23.3105 71.6271 23.0961C72.4164 22.855 73.166 22.4995 73.8521 22.0409ZM73.6228 19.6323C72.5993 19.9384 71.6818 20.091 70.8701 20.091H70.0672C69.8378 20.091 69.6472 20.0143 69.4937 19.8616C69.3411 19.709 69.2643 19.5176 69.2643 19.2882V15.0444C69.2643 14.433 69.5705 14.1269 70.1819 14.1269H73.6228V19.6323ZM83.9427 15.0444C84.9679 14.5856 85.9614 14.3562 86.9248 14.3562H88.8747V10.8007H87.8424C86.4052 10.8007 85.0288 11.3742 83.7133 12.5211L83.484 11.0301H79.9284V23.1878H83.9427V15.0444ZM101.433 22.4538C102.09 21.7965 102.419 20.8939 102.419 19.747V14.4709C102.419 13.324 102.09 12.4294 101.433 11.7871C100.791 11.1298 99.896 10.8007 98.7491 10.8007H93.4731C92.3261 10.8007 91.4236 11.1298 90.7663 11.7871C90.124 12.4294 89.8028 13.324 89.8028 14.4709V19.747C89.8028 20.8939 90.124 21.7965 90.7663 22.4538C91.4236 23.0961 92.3261 23.4172 93.4731 23.4172H98.7491C99.896 23.4172 100.791 23.0961 101.433 22.4538ZM97.4874 13.8975C98.0989 13.8975 98.405 14.2036 98.405 14.815V19.4029C98.405 20.0143 98.0989 20.3204 97.4874 20.3204H94.7347C94.1224 20.3204 93.8172 20.0143 93.8172 19.4029V14.815C93.8172 14.2036 94.1224 13.8975 94.7347 13.8975H97.4874ZM105.585 6.81279V23.1878H114.714V21.463H107.489V6.81279H105.585ZM124.402 21.4409L124.772 23.1878H126.15V14.8097C126.15 13.376 125.795 12.3341 125.086 11.6847C124.384 11.0345 123.301 10.7098 121.837 10.7098C121.104 10.7111 120.374 10.8054 119.664 10.9904C118.975 11.1666 118.309 11.4262 117.682 11.7632L118.254 13.1855C119.545 12.5582 120.703 12.245 121.725 12.245C122.637 12.245 123.298 12.4761 123.708 12.9393C124.126 13.3946 124.335 14.1039 124.335 15.0674V15.8288L122.252 15.8958C118.287 16.0158 116.305 17.3145 116.305 19.7937C116.305 20.9513 116.648 21.8441 117.335 22.4705C118.029 23.0978 118.985 23.4119 120.202 23.4119C121.113 23.4119 121.871 23.2778 122.476 23.0087C123.088 22.7326 123.701 22.2094 124.313 21.4409H124.402ZM123.294 20.9248C122.637 21.56 121.729 21.8777 120.572 21.8777C119.84 21.8777 119.269 21.7021 118.858 21.3509C118.455 20.9998 118.254 20.4881 118.254 19.8167C118.254 18.9573 118.578 18.3265 119.228 17.9233C119.885 17.5121 120.952 17.281 122.431 17.2298L124.29 17.1504V18.2594C124.29 19.402 123.958 20.2904 123.294 20.9248ZM139.456 12.3685C138.568 11.263 137.317 10.7098 135.704 10.7098C134.001 10.7098 132.718 11.3221 131.851 12.5467H131.761C131.825 11.6971 131.855 10.8453 131.851 9.99339V5.75935H129.991V23.1878H131.324L131.716 21.6077H131.851C132.275 22.2005 132.846 22.6719 133.509 22.9752C134.173 23.2664 134.905 23.4119 135.704 23.4119C137.302 23.4119 138.549 22.8552 139.445 21.7427C140.348 20.6231 140.8 19.0544 140.8 17.0384C140.8 15.0224 140.352 13.4651 139.456 12.3685ZM132.691 13.3646C133.251 12.6332 134.165 12.267 135.435 12.267C136.608 12.267 137.474 12.6587 138.034 13.4431C138.594 14.2274 138.874 15.4185 138.874 17.0163C138.874 18.5771 138.594 19.7752 138.034 20.6116C137.474 21.44 136.623 21.8547 135.48 21.8547C134.21 21.8547 133.288 21.485 132.713 20.7457C132.139 19.9993 131.851 18.7632 131.851 17.0384C131.851 15.3144 132.131 14.0889 132.691 13.3646Z" fill="white" />
</svg>
