<svg width="141" height="22" viewBox="0 0 141 22" fill="none" xmlns="http://www.w3.org/2000/svg">
<path fill-rule="evenodd" clip-rule="evenodd" d="M78.2149 19.719C79.0966 20.2069 80.091 20.4505 81.1971 20.4505C81.9848 20.4505 82.6978 20.3476 83.3352 20.141C83.9524 19.9532 84.5397 19.6785 85.0795 19.3251L85.3327 20.338L90.1436 20.0285V19.7471L89.8904 19.6627C89.5343 19.5695 89.2907 19.4095 89.1589 19.1845C89.0278 18.9409 88.962 18.6314 88.962 18.2561V4.49868L89.0745 0.559966L88.765 0.306763L83.6447 1.54465V1.82598L84.1792 1.93852C84.5731 2.01403 84.8263 2.14508 84.9388 2.33239C85.0706 2.52044 85.1358 2.81066 85.1358 3.20453V6.86191C84.6334 6.5868 84.093 6.38769 83.5321 6.27111C82.9128 6.13775 82.2808 6.07172 81.6472 6.07417C80.5218 6.07417 79.4809 6.34662 78.5243 6.89005C77.5678 7.4157 76.7993 8.22196 76.2174 9.30955C75.6362 10.3786 75.3452 11.7387 75.3452 13.3889C75.3452 15.0207 75.5984 16.3622 76.1048 17.4121C76.6305 18.4441 77.3338 19.2126 78.2149 19.719ZM84.9951 18.7062C84.3667 19.1661 83.6075 19.4126 82.8288 19.4095C81.8723 19.4095 81.0941 18.9594 80.4937 18.0591C79.894 17.1403 79.5934 15.5649 79.5934 13.3327C79.5934 11.1012 79.9125 9.46946 80.55 8.4374C81.1882 7.38757 81.9567 6.86191 82.8569 6.86191C83.5884 6.86191 84.3014 7.08698 84.9951 7.53712V18.7062ZM39.4614 20.0285V19.7471L40.0241 19.5502C40.6616 19.3444 40.9807 18.8099 40.9807 17.9466V3.54214C40.9807 3.16752 40.934 2.86693 40.84 2.64186C40.7652 2.41679 40.549 2.22948 40.1929 2.07919L39.4614 1.74158V1.46024H44.8912L50.096 15.077L54.9912 1.46024H60.5336V1.74158L60.0834 1.91038C59.7273 2.04217 59.4837 2.22948 59.352 2.47306C59.2209 2.69813 59.155 2.99871 59.155 3.37334V18.0873C59.155 18.4626 59.2017 18.7536 59.2957 18.9594C59.3897 19.166 59.614 19.3444 59.9709 19.4939L60.5336 19.7471V20.0285H53.5283V19.7471L54.1191 19.4939C54.4752 19.3444 54.7003 19.166 54.7943 18.9594C54.8883 18.7536 54.935 18.4626 54.935 18.0873V11.7572L54.9912 3.71094L49.1113 20.0285H47.7046L41.5715 3.90788L41.6559 10.9132V18.0029C41.6559 18.416 41.7121 18.7536 41.8247 19.0157C41.9557 19.26 42.2 19.4377 42.5561 19.5502L43.1751 19.7471V20.0285H39.4614ZM68.0357 6.07417C69.2543 6.07417 70.2952 6.32737 71.1585 6.83378C72.0004 7.29996 72.6856 8.00473 73.1279 8.85941C73.5965 9.70342 73.8312 10.6696 73.8312 11.7572C73.8312 11.9637 73.8216 12.1792 73.8031 12.4043C73.7873 12.5955 73.7495 12.7843 73.6905 12.9669H65.3067C65.3252 14.9926 65.6813 16.4555 66.3758 17.3558C67.088 18.2376 68.1386 18.6781 69.5267 18.6781C70.464 18.6781 71.2236 18.5285 71.8056 18.2279C72.3868 17.9281 72.9309 17.4876 73.4373 16.9056L73.7187 17.1588C73.1367 18.1909 72.3586 18.9972 71.3836 19.5783C70.427 20.1603 69.2735 20.4505 67.9231 20.4505C66.5912 20.4505 65.4096 20.1692 64.3783 19.6065C63.3462 19.0253 62.54 18.1998 61.9588 17.1307C61.3769 16.0616 61.0866 14.7867 61.0866 13.3045C61.0866 11.7668 61.4242 10.463 62.0994 9.39395C62.7746 8.30636 63.6372 7.48086 64.6877 6.91818C65.7568 6.35551 66.8726 6.07417 68.0357 6.07417ZM67.9513 6.63685C67.4071 6.63685 66.9384 6.80565 66.5446 7.14325C66.1692 7.46235 65.8694 8.04353 65.6443 8.88754C65.4377 9.71304 65.3252 10.885 65.3067 12.4043H70.1175C70.3049 10.3601 70.2301 8.88754 69.8925 7.98726C69.5549 7.08698 68.9078 6.63685 67.9513 6.63685ZM94.7642 4.61122C94.126 4.61122 93.5825 4.41428 93.1324 4.02041C92.7008 3.60803 92.4853 3.092 92.4853 2.47306C92.4853 1.83561 92.7008 1.31958 93.1324 0.925704C93.5825 0.531832 94.126 0.334896 94.7642 0.334896C95.4016 0.334896 95.9362 0.531832 96.3678 0.925704C96.7987 1.31958 97.0149 1.83561 97.0149 2.47306C97.0149 3.092 96.7987 3.60803 96.3678 4.02041C95.9362 4.41428 95.4016 4.61122 94.7642 4.61122ZM91.4444 20.0285V19.7471L91.8383 19.6346C92.2129 19.5221 92.4661 19.3533 92.5979 19.1282C92.7474 18.9031 92.8229 18.6033 92.8229 18.2279V9.42208C92.8229 9.02821 92.7474 8.73799 92.5979 8.54994C92.4661 8.34412 92.2129 8.20345 91.8383 8.12793L91.4444 8.04353V7.76219L96.5929 6.1023L96.8742 6.38364L96.7898 10.3786V18.2561C96.7898 18.6314 96.8549 18.9313 96.9867 19.1563C97.1363 19.3814 97.3895 19.5502 97.7463 19.6627L98.0277 19.7471V20.0285H91.4444ZM102.677 19.5783C103.728 20.1603 104.966 20.4505 106.391 20.4505C107.816 20.4505 109.045 20.1603 110.076 19.5783C111.109 18.9965 111.95 18.1264 112.496 17.0744C113.077 15.9869 113.368 14.7023 113.368 13.2201C113.368 11.7387 113.058 10.463 112.44 9.39395C111.839 8.32487 111.014 7.50899 109.964 6.94632C108.913 6.36513 107.723 6.07417 106.391 6.07417C105.059 6.07417 103.859 6.36513 102.79 6.94632C101.739 7.52824 100.905 8.353 100.286 9.42208C99.6853 10.4912 99.3855 11.7572 99.3855 13.2201C99.3855 14.6831 99.6668 15.9587 100.23 17.0463C100.811 18.1346 101.627 18.9787 102.677 19.5783ZM107.966 19.3251C107.572 19.7005 107.047 19.8878 106.391 19.8878C105.734 19.8878 105.2 19.7005 104.787 19.3251C104.393 18.9505 104.102 18.2842 103.915 17.3277C103.746 16.3711 103.662 15.0207 103.662 13.2764C103.662 11.5136 103.746 10.1536 103.915 9.19701C104.102 8.24047 104.393 7.57488 104.787 7.19952C105.2 6.8249 105.734 6.63685 106.391 6.63685C107.047 6.63685 107.572 6.8249 107.966 7.19952C108.36 7.57488 108.641 8.24047 108.81 9.19701C108.998 10.1536 109.092 11.5136 109.092 13.2764C109.092 15.0207 108.998 16.3711 108.81 17.3277C108.641 18.2842 108.36 18.9505 107.966 19.3251ZM114.604 20.0285V19.7471L115.026 19.6346C115.401 19.5221 115.654 19.3533 115.785 19.1282C115.936 18.9031 116.01 18.6129 116.01 18.2561V9.45022C116.01 9.03783 115.936 8.73799 115.785 8.54994C115.654 8.34412 115.401 8.20345 115.026 8.12793L114.604 8.0154V7.73406L119.443 6.1023L119.724 6.38364L119.977 8.80314V9.02821C120.241 8.5018 120.582 8.01811 120.99 7.59339C121.401 7.15909 121.875 6.7892 122.397 6.49618C122.922 6.21484 123.438 6.07417 123.944 6.07417C124.657 6.07417 125.2 6.27111 125.576 6.66498C125.951 7.05885 126.138 7.55637 126.138 8.15606C126.138 8.79426 125.951 9.29104 125.576 9.64715C125.22 9.98476 124.788 10.1536 124.282 10.1536C123.494 10.1536 122.8 9.75969 122.2 8.97194L122.143 8.91567C121.956 8.65359 121.74 8.51292 121.496 8.49367C121.253 8.45665 121.028 8.56919 120.821 8.83127C120.627 9.00837 120.465 9.21779 120.343 9.45022C120.217 9.70677 120.104 9.96971 120.005 10.238V18.0873C120.005 18.838 120.333 19.3066 120.99 19.4939L121.89 19.7471V20.0285H114.604ZM127.768 19.5221C128.519 20.141 129.437 20.4505 130.525 20.4505C131.463 20.4505 132.223 20.2447 132.804 19.8315C133.434 19.3736 134.018 18.8554 134.548 18.2842C134.698 18.9224 135.008 19.4377 135.477 19.8315C135.965 20.2069 136.621 20.3942 137.446 20.3942C138.215 20.3942 138.806 20.2728 139.218 20.0285C139.65 19.7849 140.044 19.4377 140.4 18.9875L140.147 18.7625H139.528C138.74 18.7625 138.346 18.3405 138.346 17.4965V11.2789C138.346 9.44133 137.887 8.11905 136.968 7.31205C136.067 6.48729 134.783 6.07417 133.113 6.07417C132.082 6.07417 131.125 6.20596 130.244 6.46804C129.363 6.73087 128.65 7.12474 128.106 7.64966C127.581 8.17531 127.318 8.82239 127.318 9.59088C127.318 10.0973 127.478 10.5008 127.796 10.8006C128.115 11.1012 128.519 11.2508 129.006 11.2508C129.532 11.2508 129.972 11.0635 130.328 10.6881C130.685 10.3135 130.882 9.72267 130.919 8.91567L130.975 8.6062C131.051 7.89398 131.22 7.39645 131.482 7.11512C131.744 6.81527 132.101 6.66498 132.551 6.66498C133.207 6.66498 133.686 6.92781 133.986 7.45272C134.305 7.95913 134.464 8.85052 134.464 10.1254V12.348C134.051 12.4235 133.658 12.4983 133.282 12.5731C132.944 12.6233 132.606 12.6796 132.269 12.7419C130.338 13.1172 128.921 13.6799 128.021 14.4299C127.121 15.1614 126.671 15.9683 126.671 16.8494C126.671 18.0125 127.036 18.9031 127.768 19.5221ZM133.282 18.4811C132.964 18.6499 132.617 18.7343 132.241 18.7343C131.735 18.7343 131.304 18.547 130.947 18.1717C130.591 17.7778 130.413 17.1966 130.413 16.4274C130.413 15.5271 130.666 14.8149 131.172 14.2892C131.698 13.7458 132.392 13.3608 133.254 13.1357C133.498 13.0987 133.714 13.061 133.901 13.0232L134.464 12.9107V17.6371C134.014 18.0125 133.62 18.2938 133.282 18.4811ZM21.1301 11.1442C21.1301 16.8686 16.4895 21.5092 10.765 21.5092C5.04058 21.5092 0.399994 16.8686 0.399994 11.1442C0.399994 5.41969 5.04058 0.779113 10.765 0.779113C16.4895 0.779113 21.1301 5.41969 21.1301 11.1442ZM32.9759 11.1442C32.9759 16.8686 30.6556 21.5092 27.7933 21.5092C24.9311 21.5092 22.6108 16.8686 22.6108 11.1442C22.6108 5.41969 24.9311 0.779113 27.7933 0.779113C30.6556 0.779113 32.9759 5.41969 32.9759 11.1442Z" fill="white" />
</svg>
