<svg width="141" height="30" viewBox="0 0 141 30" fill="none" xmlns="http://www.w3.org/2000/svg">
<path fill-rule="evenodd" clip-rule="evenodd" d="M30.4636 14.9079C30.4636 23.099 23.8239 29.7397 15.6318 29.7397C7.44072 29.7397 0.800049 23.099 0.800049 14.9079C0.800049 6.71685 7.44072 0.0761719 15.6318 0.0761719C23.8229 0.0761719 30.4636 6.71685 30.4636 14.9079ZM15.8849 9.41821C15.2323 9.41821 14.6954 9.23034 14.2752 8.85263C14.0788 8.66931 13.9231 8.44679 13.8182 8.19946C13.7132 7.95214 13.6614 7.68553 13.6661 7.41691C13.6661 6.83649 13.8688 6.35891 14.2752 5.98119C14.6954 5.58964 15.2323 5.39386 15.8849 5.39386C16.5227 5.39386 17.0458 5.58964 17.4512 5.98119C17.8714 6.35792 18.082 6.83649 18.082 7.41691C18.082 7.98249 17.8724 8.46107 17.4512 8.85263C17.0458 9.22935 16.5227 9.41821 15.8849 9.41821ZM17.734 10.6799V22.8182H14.0142V10.6799H17.734ZM116.629 6.29365C115.68 6.29365 114.9 6.01976 114.288 5.47098C114.002 5.2043 113.776 4.88062 113.623 4.52088C113.47 4.16115 113.395 3.77338 113.402 3.38267C113.402 2.53923 113.697 1.84313 114.288 1.29435C114.9 0.724815 115.68 0.440045 116.629 0.440045C117.558 0.440045 118.317 0.724815 118.907 1.29435C119.519 1.84313 119.825 2.53923 119.825 3.38267C119.825 4.20534 119.519 4.90144 118.907 5.47098C118.317 6.01976 117.558 6.29365 116.629 6.29365ZM119.319 8.12884V25.7846H113.908V8.12884H119.319ZM42.7799 3.57251V25.7846H37.3693V3.57251H42.7799ZM57.4594 7.93899C59.5259 7.93899 61.1713 8.61433 62.3954 9.96402C63.6393 11.2929 64.2622 13.1281 64.2622 15.4696V25.7846H58.8832V16.1973C58.8832 15.0157 58.5767 14.0981 57.9656 13.4445C57.3526 12.791 56.5309 12.4637 55.4976 12.4637C54.4634 12.4637 53.6407 12.79 53.0296 13.4445C52.4166 14.0981 52.112 15.0167 52.112 16.1973V25.7846H46.7014V8.12884H52.112V10.4703C52.6598 9.68914 53.3974 9.07807 54.3269 8.63509C55.2544 8.17036 56.2985 7.93899 57.4594 7.93899ZM77.862 25.7846V21.1966H75.9318C75.3415 21.1966 74.9193 21.0809 74.6662 20.8486C74.4131 20.6162 74.2865 20.2365 74.2865 19.7095V12.6219H77.8303V8.12884H74.2865V3.82564H68.8759V8.12884H66.7253V12.6219H68.8769V19.6462C68.8769 21.8186 69.4256 23.3907 70.5222 24.3607C71.6198 25.31 73.1484 25.7846 75.1102 25.7846H77.862ZM97.519 16.6719C97.519 17.1782 97.4873 17.7052 97.4241 18.254H85.179C85.263 19.3515 85.6111 20.195 86.2231 20.7853C86.8559 21.3548 87.6262 21.6396 88.5329 21.6396C89.8826 21.6396 90.8219 21.0701 91.349 19.931H97.1076C96.8155 21.0845 96.2635 22.1559 95.494 23.0634C94.7346 23.9919 93.7745 24.7197 92.6146 25.2467C91.4548 25.7737 90.1575 26.0377 88.7228 26.0377C86.9924 26.0377 85.4528 25.6689 84.1032 24.9303C82.7647 24.2037 81.6656 23.1046 80.939 21.7662C80.1797 20.3947 79.8 18.7919 79.8 16.9567C79.8 15.1215 80.1688 13.5187 80.9074 12.1473C81.6341 10.8089 82.7331 9.70983 84.0715 8.98315C85.4212 8.24452 86.9716 7.87571 88.7228 7.87571C90.4314 7.87571 91.9501 8.23463 93.2791 8.9515C94.5896 9.65064 95.6674 10.7174 96.3799 12.0207C97.1393 13.3496 97.519 14.9 97.519 16.6719ZM91.9818 15.2481C91.9818 14.3196 91.6654 13.582 91.0326 13.0332C90.3997 12.4844 89.6087 12.2105 88.6595 12.2105C87.7528 12.2105 86.9825 12.4745 86.3497 13.0016C85.7376 13.5286 85.3579 14.2771 85.2106 15.2481H91.9818ZM108.157 8.7933C107.208 9.34207 106.417 10.1015 105.784 11.0715V8.12884H100.374V25.7846H105.784V17.5895C105.784 16.134 106.121 15.1215 106.797 14.552C107.471 13.9617 108.484 13.666 109.834 13.666H111.321V7.93899C110.161 7.93899 109.107 8.22376 108.157 8.7933ZM123.176 12.1473C122.501 13.5187 122.163 15.1106 122.163 16.9251C122.163 18.7395 122.501 20.3423 123.176 21.7345C123.872 23.106 124.81 24.1709 125.992 24.9303C127.173 25.6689 128.481 26.0377 129.916 26.0377C131.159 26.0377 132.246 25.7846 133.175 25.2783C134.124 24.7721 134.861 24.1076 135.389 23.2849V25.7846H140.8V8.12884H135.389V10.6285C134.883 9.80581 134.155 9.14135 133.206 8.63509C132.278 8.12884 131.191 7.87571 129.947 7.87571C128.492 7.87571 127.173 8.24452 125.992 8.98315C124.81 9.72177 123.872 10.7758 123.176 12.1473ZM134.25 13.761C135.01 14.5421 135.389 15.607 135.389 16.9567C135.389 18.3064 135.01 19.3723 134.25 20.1525C133.512 20.9336 132.605 21.3232 131.529 21.3232C130.453 21.3232 129.536 20.9326 128.776 20.1525C128.038 19.3515 127.669 18.2748 127.669 16.9251C127.669 15.5754 128.038 14.5203 128.776 13.761C129.536 12.9798 130.453 12.5902 131.529 12.5902C132.605 12.5902 133.512 12.9808 134.25 13.761Z" fill="white" />
</svg>
