<svg width="141" height="29" viewBox="0 0 141 29" fill="none" xmlns="http://www.w3.org/2000/svg">
<path d="M16.9672 19.8044H20.3949C20.2167 21.4469 19.7459 22.9167 18.9845 24.2138C18.2231 25.5117 17.1454 26.5409 15.7533 27.3033C14.3603 28.0528 12.6227 28.4275 10.5405 28.4275C9.01677 28.4275 7.63015 28.1414 6.38064 27.5702C5.15052 27.0047 4.05963 26.1759 3.18511 25.1424C2.29208 24.083 1.60197 22.8153 1.11387 21.34C0.638562 19.8519 0.399994 18.1975 0.399994 16.3767V13.7881C0.399994 11.9673 0.637648 10.3183 1.11387 8.84304C1.60197 7.35497 2.29848 6.08169 3.20248 5.0223C4.1079 3.97157 5.23648 3.13622 6.50587 2.57721C7.79103 2.00593 9.23706 1.72074 10.844 1.72074C12.8073 1.72074 14.4682 2.09002 15.8246 2.82675C17.1811 3.5653 18.235 4.58904 18.9845 5.89797C19.7459 7.19592 20.2167 8.70137 20.3949 10.4152H16.9672C16.8008 9.20044 16.4919 8.15933 16.0385 7.29098C15.6117 6.43631 14.9408 5.72755 14.1108 5.25447C13.2772 4.77916 12.1885 4.5406 10.844 4.5406C9.68951 4.5406 8.67126 4.75997 7.79103 5.20054C6.92074 5.64232 6.16814 6.28494 5.59547 7.07527C5.0123 7.88512 4.57173 8.85493 4.27375 9.98561C3.97668 11.1163 3.82769 12.3713 3.82769 13.7515V16.3767C3.82769 17.6499 3.9584 18.8464 4.22073 19.9652C4.49495 21.084 4.90445 22.0657 5.45196 22.9112C5.97814 23.7355 6.69479 24.4211 7.54149 24.9103C8.38607 25.3856 9.38605 25.6241 10.5396 25.6241C12.0039 25.6241 13.1702 25.392 14.0395 24.9285C14.8879 24.4849 15.5749 23.7851 16.0029 22.9286C16.4553 22.0602 16.7771 21.0182 16.9672 19.8044ZM28.1781 0.64856V28.0701H24.8582V0.64856H28.1781ZM44.8705 24.7677V14.8228C44.8705 14.0614 44.716 13.4014 44.4062 12.842C44.1091 12.2707 43.6566 11.8302 43.0497 11.5212C42.4428 11.2114 41.6932 11.0569 40.8011 11.0569C39.9675 11.0569 39.2354 11.1995 38.6047 11.4847C37.9859 11.7708 37.4977 12.1455 37.1404 12.6089C36.7958 13.0742 36.623 13.5742 36.623 14.1098H33.3205C33.3205 13.4188 33.4988 12.7351 33.8562 12.0559C34.2126 11.3777 34.7245 10.7653 35.3918 10.2178C36.0691 9.65838 36.8789 9.21781 37.8195 8.89606C38.771 8.56334 39.8304 8.39699 40.9967 8.39699C42.4007 8.39699 43.6384 8.63464 44.7105 9.10995C45.7928 9.58708 46.6383 10.3074 47.2452 11.2708C47.864 12.2232 48.1739 13.4188 48.1739 14.8593V23.8573C48.1739 24.4999 48.2269 25.1836 48.3338 25.9102C48.4527 26.636 48.6263 27.2612 48.8521 27.784V28.0701H45.4061C45.2398 27.689 45.1091 27.1835 45.0131 26.5528C44.922 25.9621 44.8744 25.3654 44.8705 24.7677ZM45.4418 16.3584L45.4783 18.6801H42.1393C41.1987 18.6801 40.3596 18.7569 39.622 18.9113C38.8844 19.0548 38.2656 19.2751 37.7656 19.5722C37.2656 19.8702 36.8844 20.2449 36.623 20.6965C36.3607 21.1371 36.23 21.6553 36.23 22.2504C36.23 22.8573 36.3671 23.4112 36.6413 23.9103C36.9146 24.4103 37.325 24.8088 37.8725 25.1068C38.4319 25.392 39.1156 25.5355 39.9255 25.5355C40.9373 25.5355 41.8304 25.3207 42.6036 24.892C43.3769 24.4642 43.9903 23.9405 44.4427 23.3216C44.9061 22.7028 45.1557 22.1014 45.1922 21.5182L46.6026 23.1068C46.5194 23.6068 46.2928 24.1607 45.9244 24.7677C45.5551 25.3746 45.0615 25.9578 44.4427 26.5172C43.8358 27.0647 43.1091 27.5226 42.2645 27.8919C41.4309 28.2484 40.4913 28.4275 39.4438 28.4275C38.1348 28.4275 36.9859 28.1716 35.9978 27.6597C35.0225 27.1479 34.2611 26.4632 33.7127 25.6068C33.177 24.7384 32.9092 23.7677 32.9092 22.6964C32.9092 21.6608 33.1121 20.7504 33.5161 19.9652C33.9219 19.1668 34.5243 18.4848 35.2665 17.9836C36.0279 17.4479 36.9438 17.043 38.0151 16.7697C39.0864 16.4955 40.2819 16.3584 41.6037 16.3584H45.4418ZM56.6536 12.5916V28.0701H53.3328V8.75347H56.4753L56.6536 12.5916ZM55.9753 17.6801L54.4397 17.6262C54.4516 16.3054 54.6244 15.0851 54.9571 13.9663C55.2907 12.8356 55.7843 11.8548 56.4397 11.0212C57.0888 10.1921 57.9272 9.53072 58.8848 9.09258C59.861 8.62824 60.9916 8.39699 62.2768 8.39699C63.1817 8.39699 64.0144 8.5277 64.7767 8.79003C65.5212 9.02923 66.1997 9.43858 66.7584 9.98561C67.3178 10.5331 67.752 11.2351 68.0609 12.0925C68.3708 12.949 68.5253 13.9846 68.5253 15.1985V28.0701H65.2228V15.3593C65.2228 14.3475 65.05 13.5385 64.7054 12.9307C64.3917 12.342 63.8883 11.8765 63.2768 11.6099C62.658 11.3247 61.9322 11.1812 61.0986 11.1812C60.1224 11.1812 59.307 11.3549 58.6535 11.6995C58.014 12.0303 57.472 12.5224 57.0813 13.1272C56.675 13.7675 56.385 14.4746 56.2249 15.2158C56.0546 16.0261 55.9709 16.8522 55.9753 17.6801ZM68.4896 15.8593L66.2758 16.5375C66.2877 15.4782 66.4604 14.4608 66.7941 13.4846C67.1251 12.5328 67.6269 11.6494 68.2748 10.8777C68.9384 10.1096 69.7608 9.49457 70.6852 9.07521C71.6376 8.62276 72.7272 8.39699 73.9529 8.39699C74.9885 8.39699 75.9044 8.53409 76.7024 8.8074C77.5113 9.08161 78.1896 9.50299 78.7371 10.0743C79.2965 10.6346 79.7188 11.3539 80.0049 12.2351C80.29 13.1153 80.4336 14.1637 80.4336 15.3767V28.0701H77.1128V15.341C77.1128 14.2579 76.94 13.4188 76.5945 12.8237C76.2618 12.2168 75.7856 11.7945 75.1668 11.5569C74.5598 11.3064 73.8332 11.1821 72.9886 11.1821C72.2628 11.1821 71.6203 11.3064 71.0599 11.5569C70.5193 11.7932 70.0379 12.1466 69.6505 12.5916C69.2666 13.0252 68.9697 13.5285 68.7757 14.0742C68.5826 14.6494 68.4859 15.2526 68.4896 15.8593ZM96.8216 24.7677V14.8228C96.8216 14.0614 96.6671 13.4014 96.3573 12.842C96.0602 12.2707 95.6077 11.8302 95.0008 11.5212C94.3939 11.2114 93.6444 11.0569 92.7513 11.0569C91.9186 11.0569 91.1865 11.1995 90.5558 11.4847C89.937 11.7708 89.4489 12.1455 89.0915 12.6089C88.7469 13.0742 88.5741 13.5742 88.5741 14.1098H85.2716C85.2716 13.4188 85.4499 12.7351 85.8064 12.0559C86.1637 11.3777 86.6756 10.7653 87.342 10.2178C88.0202 9.65838 88.83 9.21781 89.7697 8.89606C90.7221 8.56334 91.7815 8.39699 92.9479 8.39699C94.3518 8.39699 95.5904 8.63464 96.6607 9.10995C97.7439 9.58708 98.5894 10.3074 99.1963 11.2708C99.8151 12.2232 100.125 13.4188 100.125 14.8593V23.8573C100.125 24.4999 100.178 25.1836 100.285 25.9102C100.405 26.636 100.577 27.2612 100.803 27.784V28.0701H97.3572C97.1909 27.689 97.0602 27.1835 96.9651 26.5528C96.8734 25.9621 96.8254 25.3654 96.8216 24.7677ZM97.3929 16.3584L97.4285 18.6801H94.0904C93.1499 18.6801 92.3108 18.7569 91.5731 18.9113C90.8355 19.0548 90.2167 19.2751 89.7167 19.5722C89.2167 19.8702 88.8355 20.2449 88.5741 20.6965C88.3118 21.1371 88.1811 21.6553 88.1811 22.2504C88.1811 22.8573 88.3182 23.4112 88.5924 23.9103C88.8657 24.4103 89.2761 24.8088 89.8236 25.1068C90.383 25.392 91.0676 25.5355 91.8766 25.5355C92.8884 25.5355 93.7806 25.3207 94.5548 24.892C95.328 24.4642 95.9414 23.9405 96.3938 23.3216C96.8573 22.7028 97.1077 22.1014 97.1433 21.5182L98.5537 23.1068C98.4706 23.6068 98.2439 24.1607 97.8755 24.7677C97.5062 25.3746 97.0126 25.9578 96.3938 26.5172C95.786 27.0647 95.0602 27.5226 94.2156 27.8919C93.382 28.2484 92.4424 28.4275 91.3949 28.4275C90.085 28.4275 88.937 28.1716 87.9489 27.6597C86.9727 27.1479 86.2122 26.4632 85.6638 25.6068C85.1281 24.7384 84.8603 23.7677 84.8603 22.6964C84.8603 21.6608 85.0632 20.7504 85.4672 19.9652C85.873 19.1668 86.4754 18.4848 87.2177 17.9836C87.9791 17.4479 88.8949 17.043 89.9662 16.7697C91.0375 16.4955 92.234 16.3584 93.5548 16.3584H97.3929ZM116.71 24.7677V14.8228C116.71 14.0614 116.555 13.4014 116.245 12.842C115.948 12.2707 115.496 11.8302 114.889 11.5212C114.282 11.2114 113.532 11.0569 112.639 11.0569C111.807 11.0569 111.074 11.1995 110.444 11.4847C109.825 11.7708 109.337 12.1455 108.979 12.6089C108.634 13.0742 108.462 13.5742 108.462 14.1098H105.159C105.159 13.4188 105.338 12.7351 105.694 12.0559C106.052 11.3777 106.564 10.7653 107.23 10.2178C107.908 9.65838 108.718 9.21781 109.658 8.89606C110.61 8.56334 111.669 8.39699 112.836 8.39699C114.24 8.39699 115.477 8.63464 116.549 9.10995C117.632 9.58708 118.477 10.3074 119.084 11.2708C119.703 12.2232 120.012 13.4188 120.012 14.8593V23.8573C120.012 24.4999 120.066 25.1836 120.173 25.9102C120.292 26.636 120.465 27.2612 120.691 27.784V28.0701H117.245C117.079 27.689 116.948 27.1835 116.852 26.5528C116.761 25.962 116.714 25.3654 116.71 24.7677ZM117.281 16.3584L117.317 18.6801H113.978C113.038 18.6801 112.199 18.7569 111.461 18.9113C110.723 19.0548 110.105 19.2751 109.605 19.5722C109.105 19.8702 108.723 20.2449 108.462 20.6965C108.2 21.1371 108.069 21.6553 108.069 22.2504C108.069 22.8573 108.206 23.4112 108.479 23.9103C108.754 24.4103 109.164 24.8088 109.712 25.1068C110.271 25.392 110.956 25.5355 111.765 25.5355C112.776 25.5355 113.669 25.3207 114.443 24.892C115.216 24.4642 115.829 23.9405 116.281 23.3216C116.745 22.7028 116.996 22.1014 117.031 21.5182L118.442 23.1068C118.358 23.6068 118.132 24.1607 117.763 24.7677C117.394 25.3746 116.9 25.9578 116.281 26.5172C115.674 27.0647 114.948 27.5226 114.104 27.8919C113.27 28.2484 112.329 28.4275 111.283 28.4275C109.973 28.4275 108.825 28.1716 107.837 27.6597C106.861 27.1479 106.099 26.4632 105.552 25.6068C105.016 24.7384 104.748 23.7677 104.748 22.6964C104.748 21.6608 104.951 20.7504 105.355 19.9652C105.761 19.167 106.363 18.4851 107.105 17.9836C107.867 17.4479 108.783 17.043 109.854 16.7697C110.925 16.4955 112.122 16.3584 113.443 16.3584H117.281ZM128.51 12.8777V28.0701H125.208V8.75347H128.332L128.51 12.8777ZM127.725 17.6801L126.35 17.6262C126.362 16.3054 126.558 15.0851 126.94 13.9663C127.32 12.8356 127.856 11.8548 128.546 11.0212C129.215 10.2046 130.056 9.54602 131.01 9.09258C131.973 8.62824 133.039 8.39699 134.205 8.39699C135.157 8.39699 136.014 8.5277 136.776 8.79003C137.515 9.0258 138.184 9.44276 138.722 10.003C139.269 10.5624 139.686 11.289 139.971 12.1812C140.257 13.0623 140.4 14.1391 140.4 15.4123V28.0701H137.079V15.3767C137.079 14.3648 136.93 13.5559 136.633 12.949C136.335 12.3302 135.901 11.8841 135.33 11.6099C134.758 11.3247 134.056 11.1812 133.223 11.1812C132.402 11.1812 131.653 11.3549 130.974 11.6995C130.303 12.0482 129.713 12.5347 129.242 13.1272C128.754 13.7562 128.374 14.462 128.118 15.2158C127.852 16.0101 127.72 16.8427 127.725 17.6801Z" fill="white" />
</svg>
